<svg width="110" height="110" viewBox="0 0 110 110" fill="none" xmlns="http://www.w3.org/2000/svg">
<ellipse cx="54.5816" cy="54.7784" rx="54.5816" ry="54.7784" fill="#2B5865"/>
<path d="M54.5816 42.8267L56.3223 50.5607L63.0023 46.3272L58.784 53.0313L66.4903 54.7783L58.784 56.5253L63.0023 63.2294L56.3223 58.9959L54.5816 66.73L52.8408 58.9959L46.1608 63.2294L50.3791 56.5253L42.6729 54.7783L50.3791 53.0313L46.1608 46.3272L52.8408 50.5607L54.5816 42.8267Z" fill="#F0EDE8"/>
<path d="M96.3026 62.1314L96.9752 55.6704L93.9878 53.9253L94.0789 53.0501L104.684 59.3423L104.6 60.1539L92.9276 64.1103L93.0187 63.235L96.3026 62.1314ZM97.0184 61.9008L103.752 59.6467L97.6263 56.0604L97.0184 61.9008Z" fill="#F0EDE8"/>
<path d="M97.1167 68.3277L95.4763 65.1209L92.6876 64.1775L92.9474 63.4039L103.557 66.9931L103.297 67.7666L96.4766 65.4593L101.071 74.3948L100.755 75.3351L97.5042 69.0331L90.0385 72.0645L90.3544 71.1241L97.1167 68.3277Z" fill="#F0EDE8"/>
<path d="M87.9483 75.0039C88.6903 73.7947 89.617 73.0697 90.7285 72.8287C91.8344 72.5968 93.0588 72.8958 94.4017 73.7258L99.8866 77.1158L99.4599 77.8113L94.0021 74.4381C92.8316 73.7147 91.7915 73.4418 90.8816 73.6193C89.9718 73.7968 89.2044 74.3946 88.5796 75.4129C87.9604 76.4221 87.7766 77.3743 88.0281 78.2696C88.2797 79.1649 88.9907 79.9743 90.1612 80.6977L95.619 84.0708L95.1922 84.7663L89.7072 81.3764C88.3643 80.5464 87.55 79.5791 87.2641 78.4745C86.9783 77.37 87.2063 76.2131 87.9483 75.0039Z" fill="#F0EDE8"/>
<path d="M93.1533 87.1689L92.5901 87.7594L85.0444 80.5097L80.5938 85.1754L80.0631 84.6655L85.0769 79.4093L93.1533 87.1689Z" fill="#F0EDE8"/>
<path d="M76.5314 90.9155L81.8472 87.1819L81.2096 83.7779L81.9297 83.2721L84.12 95.4202L83.4522 95.8892L72.8299 89.6635L73.5501 89.1577L76.5314 90.9155ZM77.1737 91.3051L83.2801 94.9152L81.9788 87.9301L77.1737 91.3051Z" fill="#F0EDE8"/>
<path d="M52.9829 104.975L48.5938 104.36C47.4424 104.199 46.456 103.818 45.6348 103.219C44.803 102.617 44.1977 101.859 43.8187 100.945C43.4383 100.041 43.3223 99.0549 43.4707 97.9879C43.6191 96.9208 44.0003 95.9994 44.6143 95.2238C45.2269 94.4587 46.0152 93.9013 46.9792 93.5517C47.9327 93.2005 48.9851 93.1056 50.1365 93.2669L54.5257 93.8817L52.9829 104.975ZM50.0985 94.0048C49.0739 93.8612 48.1428 93.9355 47.3052 94.2274C46.4662 94.53 45.7848 95.0161 45.2609 95.6859C44.7369 96.3557 44.4096 97.1608 44.2788 98.1011C44.1481 99.0413 44.2432 99.9056 44.5644 100.694C44.8856 101.482 45.4091 102.131 46.135 102.642C46.8594 103.164 47.7339 103.497 48.7585 103.64L52.2762 104.133L53.6162 94.4975L50.0985 94.0048Z" fill="#F0EDE8"/>
<path d="M36.9212 90.1329L37.1841 89.4455L44.3956 92.2233L40.395 102.684L33.4074 99.9929L33.6703 99.3054L39.8964 101.704L41.4738 97.579L35.9046 95.4338L36.1618 94.7613L41.731 96.9065L43.3712 92.6174L36.9212 90.1329Z" fill="#F0EDE8"/>
<path d="M23.6963 93.9886L33.9006 87.2161L34.5884 87.6553L32.7988 99.8011L32.0436 99.3189L33.6588 88.3146L24.411 94.445L23.6963 93.9886Z" fill="#F0EDE8"/>
<path d="M24.7074 80.2457L25.2173 79.715L30.7706 85.0893L23.0106 93.1654L17.6299 87.958L18.1398 87.4273L22.9342 92.0672L25.9938 88.8829L21.7053 84.7326L22.2042 84.2134L26.4927 88.3638L29.6743 85.0525L24.7074 80.2457Z" fill="#F0EDE8"/>
<path d="M16.0721 85.9681L15.6029 85.3005L24.1437 79.2549L20.4362 73.9793L21.037 73.5541L25.2136 79.4973L16.0721 85.9681Z" fill="#F0EDE8"/>
<path d="M19.6281 69.8862C20.051 70.9002 20.2066 71.9107 20.095 72.9179C19.9736 73.9292 19.6132 74.8384 19.0137 75.6456C18.4101 76.4429 17.6166 77.0481 16.6332 77.4612C15.6497 77.8743 14.6633 78.0169 13.6737 77.8888C12.6801 77.7508 11.7866 77.3683 10.9935 76.7413C10.1905 76.1183 9.57753 75.2998 9.15463 74.2858C8.73172 73.2718 8.57606 72.2612 8.68764 71.2541C8.79923 70.2469 9.15682 69.3447 9.76041 68.5474C10.3599 67.7402 11.1563 67.128 12.1495 66.7107C13.1428 66.2935 14.1362 66.1538 15.1299 66.2918C16.1194 66.4198 17.0108 66.7974 17.804 67.4245C18.5971 68.0516 19.2051 68.8721 19.6281 69.8862ZM18.9347 70.1774C18.5734 69.3111 18.0503 68.611 17.3654 68.0773C16.6805 67.5436 15.9097 67.2195 15.053 67.105C14.1864 66.9947 13.3254 67.1192 12.4698 67.4786C11.6142 67.838 10.9264 68.3642 10.4063 69.057C9.87645 69.7539 9.56059 70.5345 9.45874 71.3987C9.35689 72.2629 9.48662 73.1282 9.84794 73.9946C10.2093 74.8609 10.7344 75.5659 11.4234 76.1094C12.1083 76.6432 12.884 76.9652 13.7506 77.0755C14.6073 77.19 15.4635 77.0675 16.3191 76.7081C17.1746 76.3487 17.8674 75.8205 18.3973 75.1236C18.9173 74.4308 19.2283 73.6522 19.3301 72.788C19.4278 71.9139 19.2961 71.0437 18.9347 70.1774Z" fill="#F0EDE8"/>
<path d="M5.93686 62.7071C5.7163 61.3165 5.87516 60.1731 6.41342 59.277C6.94116 58.3825 7.78961 57.8419 8.95879 57.6551C10.1174 57.47 11.0912 57.7196 11.8801 58.4037C12.6585 59.0895 13.1579 60.1277 13.3785 61.5183L13.8798 64.6788L17.4979 64.1008L17.6257 64.9067L6.56596 66.6735L5.93686 62.7071ZM12.6517 61.6344C12.4646 60.4545 12.0637 59.595 11.4489 59.0559C10.8342 58.5167 10.0476 58.3237 9.08912 58.4769C8.13061 58.63 7.44258 59.0586 7.02504 59.7626C6.59697 60.4683 6.4765 61.4111 6.66365 62.591L7.16492 65.7515L13.153 64.7949L12.6517 61.6344Z" fill="#F0EDE8"/>
<path d="M17.17 46.3118L7.63288 45.3651L15.2204 50.8429L15.1806 51.2409L6.68983 55.0956L16.1935 56.055L16.1138 56.851L4.97039 55.7261L5.039 55.0415L14.1506 50.9279L6.03782 45.0755L6.10483 44.4068L17.2498 45.5158L17.17 46.3118Z" fill="#F0EDE8"/>
<path d="M19.4545 37.5963L20.1471 37.8452L17.5495 45.1236L7.00981 41.3349L9.52673 34.2825L10.2193 34.5315L7.9767 40.8153L12.1324 42.3092L14.1384 36.6884L14.8159 36.932L12.8099 42.5527L17.1312 44.1061L19.4545 37.5963Z" fill="#F0EDE8"/>
<path d="M15.4549 24.3022L24.8499 30.3991L24.4859 30.964L12.1921 32.084L20.3523 37.3797L19.9104 38.0656L10.5153 31.9687L10.888 31.3903L23.1732 30.2838L15.0129 24.9881L15.4549 24.3022Z" fill="#F0EDE8"/>
<path d="M20.0366 20.3592L17.17 23.1947L16.6543 22.6695L22.9676 16.4248L23.4833 16.95L20.6167 19.7854L27.9485 27.2513L27.3684 27.8252L20.0366 20.3592Z" fill="#F0EDE8"/>
<path d="M44.3245 5.99647C45.6998 5.69477 46.8496 5.78652 47.7741 6.2717C48.6962 6.74647 49.2833 7.56229 49.5353 8.71917C49.7849 9.86563 49.5906 10.8529 48.9522 11.6809C48.3115 12.4985 47.3035 13.0582 45.9282 13.3599L42.8025 14.0455L43.5822 17.6256L42.7852 17.8005L40.4018 6.85699L44.3245 5.99647ZM45.7716 12.6407C46.9385 12.3847 47.7737 11.934 48.2772 11.2884C48.7807 10.6429 48.9291 9.84588 48.7226 8.89745C48.516 7.94901 48.0498 7.28688 47.3238 6.91103C46.5956 6.52476 45.648 6.45962 44.4811 6.71561L41.3554 7.40129L42.6459 13.3264L45.7716 12.6407Z" fill="#F0EDE8"/>
<path d="M57.9772 12.8824L51.4812 12.8572L50.0452 16.0036L49.1652 16.0002L54.3601 4.82032L55.1761 4.82349L60.2851 16.0434L59.4051 16.04L57.9772 12.8824ZM57.6758 12.1933L54.7566 5.71786L51.8039 12.1704L57.6758 12.1933Z" fill="#F0EDE8"/>
<path d="M67.2484 17.794L65.4674 13.5495C65.0708 13.514 64.7113 13.4596 64.3889 13.3863L61.2685 12.6767L60.4616 16.2507L59.666 16.0698L62.1325 5.14477L66.0485 6.03527C67.4214 6.34748 68.424 6.92003 69.0561 7.75292C69.6905 8.57541 69.8773 9.56412 69.6166 10.7191C69.4216 11.5826 69.0336 12.2601 68.4524 12.7515C67.884 13.2348 67.162 13.5027 66.2863 13.5552L68.1533 17.9998L67.2484 17.794ZM64.5474 12.6839C65.7124 12.9488 66.6592 12.8961 67.388 12.5259C68.1191 12.1452 68.5916 11.4814 68.8053 10.5346C69.0191 9.58773 68.8767 8.78962 68.3781 8.14024C67.8819 7.48045 67.0513 7.01811 65.8864 6.7532L62.7661 6.04364L61.4271 11.9744L64.5474 12.6839Z" fill="#F0EDE8"/>
<path d="M74.555 9.57607L70.886 7.90403L71.1894 7.23348L79.2699 10.9159L78.9665 11.5865L75.2975 9.91446L70.984 19.448L70.2415 19.1096L74.555 9.57607Z" fill="#F0EDE8"/>
<path d="M88.1832 17.2349L81.4788 26.2065L80.9419 25.8024L80.6675 13.4202L74.8442 21.2127L74.1922 20.722L80.8967 11.7503L81.4464 12.1641L81.708 24.5367L87.5313 16.7442L88.1832 17.2349Z" fill="#F0EDE8"/>
<path d="M87.8316 32.5021L87.2704 32.9783L82.2918 27.0677L90.8322 19.8219L95.6562 25.549L95.095 26.0251L90.7967 20.9222L87.4293 23.7791L91.2741 28.3436L90.725 28.8094L86.8803 24.2448L83.3787 27.2156L87.8316 32.5021Z" fill="#F0EDE8"/>
<path d="M90.8814 39.7782L92.9157 35.6456C92.6825 35.323 92.4879 35.0159 92.3318 34.7244L90.8216 31.9032L87.5965 33.6422L87.2114 32.9228L97.0696 27.6072L98.965 31.1478C99.6295 32.3891 99.8548 33.5219 99.6409 34.5461C99.4364 35.5653 98.813 36.3558 97.7709 36.9177C96.9916 37.3379 96.2261 37.4901 95.4745 37.3743C94.7373 37.2628 94.0619 36.8939 93.4482 36.2674L91.3193 40.5964L90.8814 39.7782ZM92.9656 34.3827C93.5294 35.4359 94.1899 36.1159 94.9469 36.4227C95.7134 36.7244 96.5238 36.6449 97.3782 36.1842C98.2326 35.7236 98.7413 35.0918 98.9043 34.2889C99.0767 33.4809 98.881 32.5503 98.3172 31.4971L96.8069 28.6759L91.4553 31.5615L92.9656 34.3827Z" fill="#F0EDE8"/>
</svg>
