<svg width="184" height="59" viewBox="0 0 184 59" fill="none" xmlns="http://www.w3.org/2000/svg">
<path d="M66.6383 34.574H61.2595L69.4552 10.974H75.9243L84.1088 34.574H78.7294L72.7827 16.367H72.5969L66.6383 34.574ZM66.3023 25.2976H79.0078V29.1926H66.3023V25.2976ZM86.9661 34.574V10.974H91.9857V21.3797H92.2991L100.843 10.974H106.859L98.0488 21.541L106.964 34.574H100.958L94.4549 24.8713L91.9857 27.8674V34.574H86.9661ZM124.138 10.974H129.158V26.3002C129.158 28.021 128.745 29.5267 127.917 30.8174C127.098 32.108 125.95 33.1143 124.475 33.8365C122.999 34.5509 121.279 34.9082 119.316 34.9082C117.345 34.9082 115.621 34.5509 114.145 33.8365C112.669 33.1143 111.522 32.108 110.702 30.8174C109.883 29.5267 109.473 28.021 109.473 26.3002V10.974H114.493V25.8738C114.493 26.7726 114.69 27.5716 115.084 28.2707C115.486 28.9698 116.051 29.5191 116.777 29.9185C117.504 30.318 118.349 30.5177 119.316 30.5177C120.29 30.5177 121.136 30.318 121.854 29.9185C122.581 29.5191 123.141 28.9698 123.535 28.2707C123.938 27.5716 124.138 26.7726 124.138 25.8738V10.974ZM133.288 34.574V10.974H138.307V30.4601H148.486V34.574H133.288ZM156.508 34.574H151.129L159.325 10.974H165.794L173.979 34.574H168.599L162.652 16.367H162.467L156.508 34.574ZM156.172 25.2976H168.878V29.1926H156.172V25.2976Z" fill="url(#paint0_linear_301_522)"/>
<path d="M74.8969 47.9558C74.4523 47.9558 74.0559 47.843 73.7068 47.6175C73.3608 47.3895 73.0884 47.0654 72.8901 46.6451C72.6943 46.2224 72.5963 45.7155 72.5963 45.1242C72.5963 44.533 72.6954 44.0272 72.8937 43.6069C73.0943 43.1866 73.3691 42.8649 73.7181 42.6417C74.0665 42.4185 74.4618 42.3068 74.904 42.3068C75.2453 42.3068 75.5201 42.3638 75.7279 42.4778C75.938 42.5894 76.1006 42.72 76.2152 42.8696C76.3321 43.0192 76.4229 43.151 76.4876 43.265H76.5523V40.5545H77.6237V47.849H76.5772V46.9977H76.4876C76.4229 47.1141 76.3297 47.2471 76.2081 47.3966C76.0888 47.5463 75.9237 47.6768 75.7136 47.7885C75.5035 47.9 75.2311 47.9558 74.8969 47.9558ZM75.1331 47.0476C75.4412 47.0476 75.7018 46.9669 75.9143 46.8054C76.1291 46.6416 76.2917 46.4148 76.4016 46.1251C76.5137 45.8354 76.5701 45.4982 76.5701 45.1135C76.5701 44.7336 76.5149 44.4012 76.4051 44.1162C76.2953 43.8313 76.1339 43.6093 75.9214 43.4502C75.7089 43.2911 75.4459 43.2115 75.1331 43.2115C74.8108 43.2115 74.542 43.2947 74.3271 43.4609C74.1122 43.6271 73.9496 43.8539 73.8398 44.1412C73.7324 44.4285 73.6784 44.7526 73.6784 45.1135C73.6784 45.4792 73.7336 45.8081 73.8434 46.1002C73.9532 46.3922 74.1158 46.6237 74.3307 46.7947C74.5479 46.9633 74.8156 47.0476 75.1331 47.0476ZM81.5749 47.9594C81.033 47.9594 80.5659 47.8443 80.1741 47.6139C79.7848 47.3812 79.4839 47.0547 79.2714 46.6344C79.0612 46.2117 78.9556 45.7167 78.9556 45.1492C78.9556 44.5888 79.0612 44.0949 79.2714 43.6674C79.4839 43.24 79.78 42.9065 80.1599 42.6666C80.5421 42.4268 80.9885 42.3068 81.5001 42.3068C81.8106 42.3068 82.1115 42.3579 82.4029 42.46C82.6944 42.5621 82.9561 42.7224 83.1876 42.9408C83.4191 43.1593 83.6019 43.4431 83.736 43.7921C83.8696 44.1388 83.9367 44.5603 83.9367 45.0565V45.4341H79.5616V44.6363H82.8867C82.8867 44.3561 82.8291 44.1079 82.7145 43.8919C82.6 43.6734 82.4385 43.5012 82.2308 43.3754C82.0254 43.2495 81.7844 43.1866 81.5073 43.1866C81.2063 43.1866 80.9434 43.2602 80.719 43.4074C80.4964 43.5523 80.3249 43.7422 80.2026 43.9774C80.0833 44.2101 80.0234 44.4629 80.0234 44.736V45.3593C80.0234 45.725 80.0881 46.036 80.2169 46.2925C80.3486 46.5489 80.5315 46.7449 80.7653 46.8802C80.9998 47.0131 81.2728 47.0796 81.5862 47.0796C81.7892 47.0796 81.9744 47.0511 82.1412 46.9941C82.3085 46.9348 82.4534 46.8469 82.575 46.7306C82.6967 46.6142 82.7899 46.4706 82.8546 46.2996L83.8684 46.4813C83.7871 46.7781 83.6417 47.0381 83.4315 47.2613C83.2232 47.4821 82.962 47.6543 82.6469 47.7778C82.3335 47.8989 81.9768 47.9594 81.5749 47.9594ZM89.7261 42.3781L87.7306 47.849H86.5839L84.5842 42.3781H85.7345L87.1288 46.5881H87.1857L88.5764 42.3781H89.7261ZM92.9687 47.9594C92.4262 47.9594 91.959 47.8443 91.5673 47.6139C91.1779 47.3812 90.877 47.0547 90.6645 46.6344C90.4544 46.2117 90.3493 45.7167 90.3493 45.1492C90.3493 44.5888 90.4544 44.0949 90.6645 43.6674C90.877 43.24 91.1732 42.9065 91.5531 42.6666C91.9353 42.4268 92.3823 42.3068 92.8933 42.3068C93.2037 42.3068 93.5047 42.3579 93.7961 42.46C94.0875 42.5621 94.3493 42.7224 94.5808 42.9408C94.8128 43.1593 94.9956 43.4431 95.1292 43.7921C95.2633 44.1388 95.3298 44.5603 95.3298 45.0565V45.4341H90.9548V44.6363H94.2798C94.2798 44.3561 94.2228 44.1079 94.1083 43.8919C93.9931 43.6734 93.8323 43.5012 93.6245 43.3754C93.4192 43.2495 93.1776 43.1866 92.9004 43.1866C92.5995 43.1866 92.3365 43.2602 92.1122 43.4074C91.8902 43.5523 91.7181 43.7422 91.5964 43.9774C91.4765 44.2101 91.4171 44.4629 91.4171 44.736V45.3593C91.4171 45.725 91.4818 46.036 91.6106 46.2925C91.7418 46.5489 91.9246 46.7449 92.1591 46.8802C92.3929 47.0131 92.6666 47.0796 92.9794 47.0796C93.1824 47.0796 93.3675 47.0511 93.5349 46.9941C93.7017 46.9348 93.8465 46.8469 93.9682 46.7306C94.0899 46.6142 94.1831 46.4706 94.2478 46.2996L95.2616 46.4813C95.1808 46.7781 95.0348 47.0381 94.8247 47.2613C94.617 47.4821 94.3552 47.6543 94.04 47.7778C93.7272 47.8989 93.3699 47.9594 92.9687 47.9594ZM97.6405 40.5545V47.849H96.5691V40.5545H97.6405ZM101.45 47.9594C100.935 47.9594 100.484 47.8419 100.1 47.6068C99.7149 47.3717 99.4164 47.0428 99.2039 46.6202C98.9914 46.1975 98.8852 45.7036 98.8852 45.1385C98.8852 44.571 98.9914 44.0747 99.2039 43.6497C99.4164 43.2246 99.7149 42.8945 100.1 42.6595C100.484 42.4244 100.935 42.3068 101.45 42.3068C101.967 42.3068 102.417 42.4244 102.801 42.6595C103.186 42.8945 103.485 43.2246 103.697 43.6497C103.91 44.0747 104.016 44.571 104.016 45.1385C104.016 45.7036 103.91 46.1975 103.697 46.6202C103.485 47.0428 103.186 47.3717 102.801 47.6068C102.417 47.8419 101.967 47.9594 101.45 47.9594ZM101.454 47.0654C101.789 47.0654 102.066 46.9776 102.286 46.8018C102.505 46.6261 102.668 46.3922 102.773 46.1002C102.88 45.8081 102.934 45.4863 102.934 45.1349C102.934 44.7858 102.88 44.4653 102.773 44.1732C102.668 43.8788 102.505 43.6425 102.286 43.4644C102.066 43.2864 101.789 43.1973 101.454 43.1973C101.118 43.1973 100.838 43.2864 100.616 43.4644C100.396 43.6425 100.233 43.8788 100.125 44.1732C100.019 44.4653 99.9672 44.7858 99.9672 45.1349C99.9672 45.4863 100.019 45.8081 100.125 46.1002C100.233 46.3922 100.396 46.6261 100.616 46.8018C100.838 46.9776 101.118 47.0654 101.454 47.0654ZM105.263 49.9006V42.3781H106.309V43.265H106.398C106.461 43.151 106.55 43.0192 106.667 42.8696C106.784 42.72 106.947 42.5894 107.154 42.4778C107.362 42.3638 107.637 42.3068 107.979 42.3068C108.423 42.3068 108.819 42.4185 109.168 42.6417C109.517 42.8649 109.79 43.1866 109.989 43.6069C110.189 44.0272 110.29 44.533 110.29 45.1242C110.29 45.7155 110.19 46.2224 109.992 46.6451C109.794 47.0654 109.522 47.3895 109.176 47.6175C108.829 47.843 108.434 47.9558 107.99 47.9558C107.655 47.9558 107.381 47.9 107.169 47.7885C106.959 47.6768 106.794 47.5463 106.674 47.3966C106.555 47.2471 106.463 47.1141 106.398 46.9977H106.334V49.9006H105.263ZM106.312 45.1135C106.312 45.4982 106.369 45.8354 106.481 46.1251C106.593 46.4148 106.756 46.6416 106.968 46.8054C107.181 46.9669 107.441 47.0476 107.749 47.0476C108.069 47.0476 108.337 46.9633 108.552 46.7947C108.767 46.6237 108.929 46.3922 109.039 46.1002C109.152 45.8081 109.208 45.4792 109.208 45.1135C109.208 44.7526 109.153 44.4285 109.043 44.1412C108.935 43.8539 108.773 43.6271 108.555 43.4609C108.34 43.2947 108.072 43.2115 107.749 43.2115C107.439 43.2115 107.176 43.2911 106.961 43.4502C106.749 43.6093 106.587 43.8313 106.477 44.1162C106.367 44.4012 106.312 44.7336 106.312 45.1135ZM111.541 47.849V42.3781H112.569V43.2685H112.637C112.752 42.967 112.939 42.7319 113.2 42.5633C113.46 42.3923 113.772 42.3068 114.135 42.3068C114.503 42.3068 114.811 42.3923 115.059 42.5633C115.31 42.7343 115.495 42.9693 115.615 43.2685H115.672C115.804 42.9765 116.013 42.7438 116.299 42.5704C116.586 42.3947 116.927 42.3068 117.324 42.3068C117.823 42.3068 118.231 42.4624 118.546 42.7735C118.863 43.0845 119.022 43.5535 119.022 44.1804V47.849H117.951V44.2801C117.951 43.9097 117.85 43.6414 117.647 43.4751C117.444 43.3089 117.201 43.2258 116.919 43.2258C116.571 43.2258 116.299 43.3327 116.106 43.5464C115.912 43.7577 115.816 44.0296 115.816 44.362V47.849H114.748V44.2124C114.748 43.9156 114.655 43.6769 114.468 43.4965C114.282 43.316 114.039 43.2258 113.74 43.2258C113.538 43.2258 113.35 43.2792 113.178 43.3861C113.009 43.4905 112.871 43.6366 112.766 43.8242C112.663 44.0118 112.612 44.2291 112.612 44.476V47.849H111.541ZM122.881 47.9594C122.339 47.9594 121.872 47.8443 121.48 47.6139C121.09 47.3812 120.789 47.0547 120.577 46.6344C120.367 46.2117 120.262 45.7167 120.262 45.1492C120.262 44.5888 120.367 44.0949 120.577 43.6674C120.789 43.24 121.086 42.9065 121.466 42.6666C121.848 42.4268 122.295 42.3068 122.806 42.3068C123.116 42.3068 123.417 42.3579 123.709 42.46C124 42.5621 124.262 42.7224 124.493 42.9408C124.725 43.1593 124.908 43.4431 125.042 43.7921C125.175 44.1388 125.242 44.5603 125.242 45.0565V45.4341H120.867V44.6363H124.192C124.192 44.3561 124.135 44.1079 124.02 43.8919C123.906 43.6734 123.744 43.5012 123.536 43.3754C123.331 43.2495 123.09 43.1866 122.813 43.1866C122.512 43.1866 122.249 43.2602 122.025 43.4074C121.802 43.5523 121.631 43.7422 121.508 43.9774C121.389 44.2101 121.33 44.4629 121.33 44.736V45.3593C121.33 45.725 121.394 46.036 121.523 46.2925C121.654 46.5489 121.837 46.7449 122.071 46.8802C122.305 47.0131 122.578 47.0796 122.892 47.0796C123.095 47.0796 123.28 47.0511 123.447 46.9941C123.614 46.9348 123.759 46.8469 123.881 46.7306C124.002 46.6142 124.096 46.4706 124.16 46.2996L125.174 46.4813C125.093 46.7781 124.947 47.0381 124.737 47.2613C124.529 47.4821 124.268 47.6543 123.952 47.7778C123.639 47.8989 123.282 47.9594 122.881 47.9594ZM127.553 44.6006V47.849H126.482V42.3781H127.51V43.2685H127.578C127.704 42.9788 127.903 42.7461 128.173 42.5704C128.445 42.3947 128.788 42.3068 129.201 42.3068C129.576 42.3068 129.905 42.3852 130.187 42.5419C130.468 42.6963 130.687 42.9266 130.842 43.2329C130.997 43.5392 131.075 43.9179 131.075 44.3691V47.849H130.004V44.4973C130.004 44.1008 129.9 43.7909 129.692 43.5677C129.484 43.3422 129.199 43.2294 128.836 43.2294C128.587 43.2294 128.366 43.2828 128.173 43.3897C127.981 43.4965 127.83 43.6532 127.717 43.8598C127.608 44.064 127.553 44.3109 127.553 44.6006ZM135.131 42.3781V43.2329H132.125V42.3781H135.131ZM132.932 41.0674H134.003V46.2426C134.003 46.4492 134.034 46.6047 134.096 46.7092C134.158 46.8113 134.238 46.8814 134.336 46.9194C134.436 46.955 134.545 46.9728 134.662 46.9728C134.748 46.9728 134.823 46.9669 134.888 46.955C134.952 46.9431 135.003 46.9336 135.038 46.9265L135.232 47.8063C135.17 47.83 135.082 47.8537 134.967 47.8775C134.852 47.9036 134.709 47.9178 134.537 47.9202C134.255 47.925 133.992 47.8751 133.748 47.7706C133.505 47.6662 133.307 47.5047 133.157 47.2863C133.006 47.0678 132.932 46.7935 132.932 46.4634V41.0674ZM139.088 49.9006V42.3781H140.134V43.265H140.224C140.286 43.151 140.375 43.0192 140.493 42.8696C140.61 42.72 140.772 42.5894 140.98 42.4778C141.188 42.3638 141.463 42.3068 141.804 42.3068C142.249 42.3068 142.645 42.4185 142.994 42.6417C143.343 42.8649 143.616 43.1866 143.814 43.6069C144.015 44.0272 144.115 44.533 144.115 45.1242C144.115 45.7155 144.016 46.2224 143.818 46.6451C143.62 47.0654 143.347 47.3895 143.001 47.6175C142.655 47.843 142.259 47.9558 141.815 47.9558C141.481 47.9558 141.207 47.9 140.994 47.7885C140.784 47.6768 140.619 47.5463 140.5 47.3966C140.38 47.2471 140.288 47.1141 140.224 46.9977H140.159V49.9006H139.088ZM140.138 45.1135C140.138 45.4982 140.194 45.8354 140.307 46.1251C140.419 46.4148 140.581 46.6416 140.794 46.8054C141.006 46.9669 141.266 47.0476 141.575 47.0476C141.895 47.0476 142.163 46.9633 142.377 46.7947C142.592 46.6237 142.755 46.3922 142.865 46.1002C142.977 45.8081 143.033 45.4792 143.033 45.1135C143.033 44.7526 142.978 44.4285 142.868 44.1412C142.761 43.8539 142.598 43.6271 142.381 43.4609C142.166 43.2947 141.897 43.2115 141.575 43.2115C141.264 43.2115 141.002 43.2911 140.787 43.4502C140.574 43.6093 140.413 43.8313 140.303 44.1162C140.193 44.4012 140.138 44.7336 140.138 45.1135ZM146.968 47.9701C146.619 47.9701 146.304 47.906 146.022 47.7778C145.74 47.6472 145.517 47.4584 145.352 47.2114C145.189 46.9645 145.108 46.6617 145.108 46.3032C145.108 45.9945 145.168 45.7404 145.287 45.541C145.407 45.3415 145.568 45.1836 145.771 45.0673C145.974 44.9509 146.201 44.863 146.452 44.8037C146.703 44.7443 146.958 44.6992 147.218 44.6683C147.548 44.6303 147.816 44.5995 148.021 44.5757C148.227 44.5496 148.376 44.5081 148.469 44.4511C148.562 44.3941 148.609 44.3014 148.609 44.1732V44.1483C148.609 43.8372 148.521 43.5962 148.344 43.4252C148.169 43.2543 147.909 43.1688 147.563 43.1688C147.202 43.1688 146.917 43.2484 146.71 43.4074C146.504 43.5642 146.362 43.7387 146.284 43.931L145.276 43.7031C145.396 43.3707 145.57 43.1023 145.8 42.8981C146.031 42.6915 146.298 42.5419 146.599 42.4493C146.9 42.3543 147.216 42.3068 147.548 42.3068C147.768 42.3068 148.001 42.333 148.247 42.3852C148.495 42.4351 148.727 42.5277 148.942 42.663C149.159 42.7984 149.337 42.9919 149.476 43.2436C149.615 43.4929 149.684 43.8171 149.684 44.216V47.849H148.638V47.101H148.595C148.525 47.2388 148.422 47.3741 148.283 47.5071C148.144 47.64 147.966 47.7505 147.749 47.8383C147.532 47.9262 147.271 47.9701 146.968 47.9701ZM147.201 47.1153C147.497 47.1153 147.75 47.0571 147.96 46.9408C148.173 46.8244 148.334 46.6724 148.444 46.4849C148.556 46.2949 148.613 46.0919 148.613 45.8757V45.1705C148.574 45.2085 148.5 45.2441 148.39 45.2774C148.283 45.3083 148.16 45.3355 148.021 45.3593C147.883 45.3807 147.748 45.4009 147.616 45.4198C147.485 45.4365 147.375 45.4507 147.287 45.4626C147.079 45.4887 146.889 45.5327 146.717 45.5944C146.547 45.6561 146.411 45.7452 146.308 45.8615C146.208 45.9755 146.158 46.1274 146.158 46.3174C146.158 46.581 146.256 46.7804 146.452 46.9158C146.647 47.0488 146.897 47.1153 147.201 47.1153ZM151.161 47.849V42.3781H152.197V43.2472H152.254C152.354 42.9527 152.531 42.7212 152.785 42.5526C153.04 42.3816 153.329 42.2962 153.652 42.2962C153.718 42.2962 153.797 42.2985 153.888 42.3033C153.981 42.308 154.054 42.314 154.107 42.3211V43.3397C154.064 43.3279 153.987 43.3148 153.877 43.3006C153.768 43.284 153.658 43.2757 153.548 43.2757C153.295 43.2757 153.069 43.3291 152.871 43.4359C152.675 43.5404 152.519 43.6864 152.405 43.874C152.29 44.0592 152.233 44.2706 152.233 44.5081V47.849H151.161ZM157.979 42.3781V43.2329H154.973V42.3781H157.979ZM155.779 41.0674H156.85V46.2426C156.85 46.4492 156.881 46.6047 156.943 46.7092C157.005 46.8113 157.085 46.8814 157.183 46.9194C157.284 46.955 157.392 46.9728 157.509 46.9728C157.595 46.9728 157.671 46.9669 157.735 46.955C157.8 46.9431 157.849 46.9336 157.886 46.9265L158.079 47.8063C158.017 47.83 157.928 47.8537 157.814 47.8775C157.699 47.9036 157.556 47.9178 157.384 47.9202C157.102 47.925 156.839 47.8751 156.595 47.7706C156.352 47.6662 156.155 47.5047 156.004 47.2863C155.854 47.0678 155.779 46.7935 155.779 46.4634V41.0674ZM160.285 44.6006V47.849H159.214V42.3781H160.243V43.2685H160.311C160.437 42.9788 160.636 42.7461 160.906 42.5704C161.178 42.3947 161.521 42.3068 161.934 42.3068C162.309 42.3068 162.638 42.3852 162.92 42.5419C163.201 42.6963 163.42 42.9266 163.575 43.2329C163.73 43.5392 163.808 43.9179 163.808 44.3691V47.849H162.737V44.4973C162.737 44.1008 162.633 43.7909 162.425 43.5677C162.217 43.3422 161.931 43.2294 161.569 43.2294C161.32 43.2294 161.099 43.2828 160.906 43.3897C160.715 43.4965 160.563 43.6532 160.45 43.8598C160.341 44.064 160.285 44.3109 160.285 44.6006ZM167.667 47.9594C167.125 47.9594 166.658 47.8443 166.267 47.6139C165.877 47.3812 165.576 47.0547 165.363 46.6344C165.153 46.2117 165.048 45.7167 165.048 45.1492C165.048 44.5888 165.153 44.0949 165.363 43.6674C165.576 43.24 165.872 42.9065 166.252 42.6666C166.634 42.4268 167.081 42.3068 167.592 42.3068C167.902 42.3068 168.204 42.3579 168.495 42.46C168.787 42.5621 169.048 42.7224 169.28 42.9408C169.511 43.1593 169.694 43.4431 169.828 43.7921C169.962 44.1388 170.028 44.5603 170.028 45.0565V45.4341H165.653V44.6363H168.979C168.979 44.3561 168.922 44.1079 168.807 43.8919C168.692 43.6734 168.531 43.5012 168.323 43.3754C168.118 43.2495 167.876 43.1866 167.599 43.1866C167.298 43.1866 167.035 43.2602 166.811 43.4074C166.589 43.5523 166.417 43.7422 166.295 43.9774C166.176 44.2101 166.116 44.4629 166.116 44.736V45.3593C166.116 45.725 166.18 46.036 166.309 46.2925C166.44 46.5489 166.623 46.7449 166.858 46.8802C167.092 47.0131 167.365 47.0796 167.678 47.0796C167.881 47.0796 168.066 47.0511 168.234 46.9941C168.401 46.9348 168.545 46.8469 168.667 46.7306C168.789 46.6142 168.882 46.4706 168.946 46.2996L169.961 46.4813C169.879 46.7781 169.733 47.0381 169.523 47.2613C169.316 47.4821 169.054 47.6543 168.739 47.7778C168.426 47.8989 168.069 47.9594 167.667 47.9594ZM171.268 47.849V42.3781H172.304V43.2472H172.361C172.461 42.9527 172.638 42.7212 172.891 42.5526C173.146 42.3816 173.435 42.2962 173.758 42.2962C173.825 42.2962 173.904 42.2985 173.995 42.3033C174.088 42.308 174.161 42.314 174.213 42.3211V43.3397C174.17 43.3279 174.094 43.3148 173.984 43.3006C173.874 43.284 173.764 43.2757 173.654 43.2757C173.401 43.2757 173.175 43.3291 172.977 43.4359C172.781 43.5404 172.626 43.6864 172.511 43.874C172.397 44.0592 172.339 44.2706 172.339 44.5081V47.849H171.268Z" fill="white"/>
<mask id="mask0_301_522" style="mask-type:luminance" maskUnits="userSpaceOnUse" x="9" y="7" width="60" height="45">
<path d="M68.4955 7.375H9.2594V51.861H68.4955V7.375Z" fill="white"/>
</mask>
<g mask="url(#mask0_301_522)">
<path fill-rule="evenodd" clip-rule="evenodd" d="M45.781 8.16737C45.9159 7.98925 45.8121 7.7323 45.5902 7.70044C44.0956 7.48598 42.5673 7.375 41.013 7.375C32.8402 7.375 25.3885 10.4439 19.7609 15.4855C19.5251 15.6967 19.749 16.0614 20.0492 15.9589C22.4743 15.1306 25.0543 14.3089 27.2621 13.7377C30.4897 12.9027 34.6658 12.1519 38.0125 11.6121C39.6907 11.3414 41.169 11.1224 42.2282 10.9709C42.7578 10.8952 43.1829 10.8364 43.4759 10.7965C43.6224 10.7765 43.736 10.7612 43.8131 10.7509L43.8389 10.7474C43.8621 10.7444 43.8843 10.7358 43.9035 10.7224L43.905 10.7213C43.9195 10.7112 43.9321 10.6986 43.9423 10.6843C44.4977 9.9025 44.977 9.24005 45.4154 8.65347C45.5436 8.48196 45.6657 8.31977 45.781 8.16737ZM15.8713 19.7294C15.8189 19.7488 15.7731 19.7824 15.7393 19.8265C14.6274 21.2771 13.6391 22.8262 12.7898 24.4584C12.6674 24.6936 12.8984 24.9517 13.1494 24.863C16.0764 23.8284 19.4851 22.6971 22.292 21.9709C25.5195 21.1359 29.6956 20.3851 33.0424 19.8453C34.7206 19.5747 36.1989 19.3556 37.258 19.2042C37.7877 19.1285 38.2128 19.0696 38.5057 19.0297C38.5203 19.0277 38.5423 19.0184 38.5667 19.0065C38.6509 18.9656 38.7282 18.896 38.7737 18.8146C39.7655 17.0359 40.756 15.3932 41.7659 13.8553C41.8018 13.8007 41.8376 13.7464 41.8733 13.6922C42.014 13.4788 41.836 13.1992 41.5821 13.2365C40.6671 13.3712 39.5649 13.5388 38.3589 13.7334C35.0244 14.2713 30.9313 15.0091 27.8068 15.8174C24.7123 16.618 20.8137 17.9417 17.6681 19.0741C17.0327 19.3029 16.4294 19.5233 15.8713 19.7294ZM11.4114 27.7749C11.3306 27.8045 11.2668 27.8675 11.2368 27.9478C10.7001 29.3841 10.2655 30.8698 9.94192 32.3962C9.89461 32.6192 10.1114 32.8055 10.3278 32.7304C12.9992 31.8028 15.9474 30.8455 18.4263 30.2042C21.6539 29.3691 25.83 28.6184 29.1767 28.0786C30.8549 27.8079 32.3333 27.5889 33.3924 27.4375C33.922 27.3617 34.3471 27.3029 34.6401 27.263C34.7866 27.243 34.9002 27.2277 34.9773 27.2174C34.9911 27.2155 35.0027 27.2058 35.0066 27.1925C35.528 25.4554 36.2754 23.6485 37.1434 21.8612C37.2473 21.647 37.0693 21.4028 36.8326 21.4374C35.8766 21.5772 34.6934 21.7562 33.3888 21.9666C30.0543 22.5045 25.9612 23.2423 22.8366 24.0507C19.7422 24.8513 15.8435 26.1749 12.698 27.3073C12.2518 27.468 11.8215 27.6245 11.4114 27.7749ZM9.63963 35.2517C9.53326 35.2896 9.458 35.3841 9.44583 35.4958C9.32261 36.6256 9.2594 37.7733 9.2594 38.9358C9.2594 39.498 9.27418 40.0569 9.30344 40.6119C9.31365 40.8069 9.50964 40.936 9.69518 40.8719C12.2954 39.9733 15.1316 39.0576 17.529 38.4374C20.7565 37.6024 24.9326 36.8516 28.2794 36.3118C29.9575 36.0412 31.4359 35.8221 32.495 35.6707C33.0247 35.595 33.4497 35.5362 33.7427 35.4962C33.7673 35.4929 33.7859 35.4725 33.787 35.448C33.8753 33.5104 34.0566 31.6067 34.3715 29.8655C34.4076 29.6661 34.2379 29.4884 34.0361 29.5169C33.9295 29.532 33.8175 29.5479 33.7002 29.5647C32.6508 29.7146 31.1856 29.9318 29.5231 30.1999C26.1886 30.7378 22.0955 31.4756 18.971 32.2839C16.1363 33.0173 12.6268 34.1896 9.63963 35.2517ZM9.77448 43.1211C9.64182 43.1674 9.56021 43.3001 9.58009 43.4385C9.82333 45.1307 10.2016 46.7797 10.7037 48.3742C10.7531 48.5312 10.9231 48.616 11.08 48.5635C13.2113 47.8502 15.4067 47.1661 17.3219 46.6707C20.5494 45.8356 24.7255 45.0849 28.0723 44.5451C29.7504 44.2744 31.2288 44.0554 32.2879 43.904C32.8176 43.8283 33.2426 43.7694 33.5356 43.7294C33.556 43.7267 33.5758 43.724 33.5948 43.7214C33.7482 43.7005 33.86 43.5664 33.8519 43.4127C33.763 41.7085 33.7075 39.8703 33.7211 38.0112C33.7225 37.8307 33.5626 37.6906 33.3828 37.7158C33.2075 37.7404 33.0136 37.7678 32.8028 37.7979C31.7535 37.9479 30.2882 38.165 28.6258 38.4331C25.2913 38.971 21.1982 39.7088 18.0737 40.5172C15.5597 41.1676 12.515 42.1632 9.77448 43.1211ZM11.828 50.5808C11.6665 50.6348 11.5841 50.8127 11.6491 50.9692C11.7452 51.2009 11.8442 51.4311 11.9457 51.66C11.9929 51.7663 12.0991 51.8345 12.216 51.8345H34.2631C34.4417 51.8345 34.5799 51.6789 34.5582 51.5026C34.5102 51.1125 34.4534 50.6306 34.3923 50.0718C34.2727 48.9767 34.1364 47.585 34.0179 46.0103C34.0108 45.9152 33.9245 45.8456 33.8295 45.8586C33.5407 45.898 33.1203 45.9562 32.5957 46.0312C31.5464 46.1812 30.0811 46.3983 28.4187 46.6664C25.0842 47.2042 20.9911 47.942 17.8665 48.7504C16.0286 49.2259 13.907 49.886 11.828 50.5808ZM36.7581 51.6701C36.7702 51.7642 36.8508 51.8345 36.9461 51.8345H51.7736C52.1318 51.8345 52.1905 51.2872 51.8422 51.2044C51.4835 51.1193 51.1358 51.0333 50.8012 50.9468C47.6048 50.1198 43.628 48.7675 40.4709 47.6309C38.8879 47.061 37.5026 46.5423 36.5129 46.166C36.4639 46.1474 36.4159 46.1291 36.3688 46.1112C36.2852 46.0793 36.1966 46.145 36.2036 46.2338C36.3127 47.6227 36.4341 48.8536 36.5419 49.8397C36.6268 50.6169 36.7032 51.2412 36.7581 51.6701ZM68.1441 51.8461C68.213 51.8559 68.283 51.8381 68.3394 51.7969C68.5222 51.6638 68.4694 51.3792 68.2516 51.3174C63.0028 49.8287 58.1253 47.3538 54.3827 43.6161C54.3415 43.5749 54.2892 43.5465 54.232 43.5347C52.9789 43.2741 51.7657 42.9987 50.6631 42.7135C47.4667 41.8865 43.4899 40.5342 40.3328 39.3977C38.7498 38.8277 37.3646 38.3091 36.3748 37.9328C36.3445 37.9212 36.3146 37.9098 36.285 37.8985C36.0917 37.825 35.8837 37.9653 35.8826 38.171C35.8729 40.0101 35.9313 41.8468 36.0255 43.5678C36.0291 43.6346 36.0717 43.6929 36.1343 43.7171C36.4033 43.8214 36.7952 43.9724 37.2854 44.1588C38.2661 44.5316 39.6389 45.0457 41.2073 45.6103C44.3528 46.7428 48.2514 48.0664 51.3459 48.867C54.4663 49.6743 58.8346 50.4394 62.4508 51.0053C64.2534 51.2873 65.8584 51.5183 67.0128 51.6786C67.4176 51.7349 67.8438 51.8033 68.1441 51.8461ZM51.2078 40.6337C51.43 40.6912 51.5985 40.4348 51.461 40.252C49.8946 38.1698 48.5809 35.8888 47.5649 33.4541C47.5313 33.3735 47.4639 33.3116 47.3803 33.285C45.3087 32.6249 43.2005 31.8926 41.3683 31.2331C39.7852 30.6631 38.4 30.1444 37.4103 29.7681C37.2555 29.7093 37.1104 29.6539 36.9757 29.6024C36.8051 29.5371 36.616 29.6388 36.5806 29.8171C36.2423 31.5218 36.0472 33.4375 35.9529 35.4175C35.9515 35.4466 35.969 35.4733 35.9962 35.4838C36.2653 35.5881 36.6572 35.7391 37.1474 35.9255C38.128 36.2983 39.5009 36.8124 41.0691 37.377C44.2147 38.5094 48.1134 39.8331 51.2078 40.6337ZM46.036 30.5822C46.2651 30.6591 46.4856 30.4449 46.418 30.2141C45.7875 28.0631 45.3813 25.817 45.226 23.5027C45.2181 23.3848 45.1411 23.2826 45.0294 23.2427C44.8655 23.1841 44.7035 23.126 44.5436 23.0684C42.9606 22.4985 41.5753 21.9798 40.5856 21.6035C40.4054 21.535 40.2383 21.4712 40.0854 21.4126C39.9444 21.3586 39.785 21.4182 39.7157 21.5517C38.7434 23.424 37.8937 25.3196 37.2944 27.1242C37.2453 27.2721 37.3223 27.4316 37.4684 27.4878C37.6742 27.5669 37.9137 27.6586 38.1828 27.7609C39.1634 28.1337 40.5363 28.6478 42.1046 29.2124C43.3313 29.654 44.6726 30.1248 46.036 30.5822ZM44.7637 20.8613C44.9558 20.9309 45.1594 20.7908 45.1644 20.5877C45.221 18.2775 45.5275 16.0288 46.0578 13.8673C46.0934 13.7222 46.0157 13.5729 45.8754 13.5191C45.6122 13.4183 45.3917 13.3332 45.22 13.2667C45.0835 13.2138 44.9779 13.1726 44.9062 13.1446C44.8785 13.1338 44.847 13.1434 44.8302 13.1677C44.425 13.7554 44.0044 14.3785 43.5766 15.0299C42.7348 16.3119 41.873 17.6923 41.0516 19.117C40.9615 19.2734 41.0332 19.4725 41.2025 19.537C41.2532 19.5564 41.3051 19.5761 41.3581 19.5963C42.2296 19.9276 43.4109 20.3705 44.7637 20.8613ZM46.4692 11.4433C46.6084 11.4969 46.7639 11.4232 46.8158 11.2842C46.9672 10.8779 47.1585 10.4627 47.34 10.0581C47.3812 9.96634 47.2114 9.85436 47.1511 9.93501C46.9026 10.2675 46.6306 10.6358 46.3401 11.0354C46.2371 11.1771 46.2969 11.3771 46.4609 11.4402C46.4637 11.4412 46.4665 11.4423 46.4692 11.4433Z" fill="url(#paint1_linear_301_522)"/>
</g>
<defs>
<linearGradient id="paint0_linear_301_522" x1="117.641" y1="7.906" x2="117.641" y2="31.447" gradientUnits="userSpaceOnUse">
<stop stop-color="white"/>
<stop offset="1" stop-color="#F0EDE8"/>
</linearGradient>
<linearGradient id="paint1_linear_301_522" x1="46" y1="2.8615" x2="33.4685" y2="49.0966" gradientUnits="userSpaceOnUse">
<stop stop-color="#FFD483"/>
<stop offset="1" stop-color="#E57601"/>
</linearGradient>
</defs>
</svg>
