<svg width="804" height="342" viewBox="0 0 804 342" fill="none" xmlns="http://www.w3.org/2000/svg">
<rect width="804" height="342" fill="white"/>
<path d="M145.52 149.64H114.44V141.36H184.88V149.64H153.92V204H145.52V149.64ZM221.253 204C217.493 204 213.933 203.28 210.573 201.84C207.293 200.4 204.413 198.48 201.933 196.08C199.453 193.6 197.493 190.72 196.053 187.44C194.613 184.08 193.893 180.52 193.893 176.76V141.36H237.093C240.853 141.36 244.373 142.08 247.653 143.52C251.013 144.96 253.893 146.92 256.293 149.4C258.773 151.8 260.733 154.68 262.173 158.04C263.613 161.32 264.333 164.84 264.333 168.6V204H221.253ZM202.293 176.76C202.293 179.4 202.773 181.88 203.733 184.2C204.773 186.44 206.133 188.44 207.813 190.2C209.573 191.88 211.573 193.24 213.813 194.28C216.133 195.24 218.613 195.72 221.253 195.72H256.053V168.6C256.053 165.96 255.533 163.52 254.493 161.28C253.533 158.96 252.173 156.96 250.413 155.28C248.733 153.52 246.733 152.16 244.413 151.2C242.173 150.16 239.733 149.64 237.093 149.64H202.293V176.76ZM314.146 141.36C318.386 141.36 322.346 142.16 326.026 143.76C329.786 145.36 333.026 147.56 335.746 150.36C338.546 153.08 340.746 156.32 342.346 160.08C343.946 163.76 344.746 167.72 344.746 171.96C344.746 176.36 343.906 180.52 342.226 184.44C340.546 188.28 338.266 191.68 335.386 194.64C332.506 197.52 329.106 199.8 325.186 201.48C321.346 203.16 317.226 204 312.826 204H274.306V161.04H282.706V195.72H312.826C316.106 195.72 319.146 195.12 321.946 193.92C324.826 192.64 327.346 190.92 329.506 188.76C331.666 186.6 333.346 184.08 334.546 181.2C335.826 178.32 336.466 175.24 336.466 171.96C336.466 168.92 335.866 166.04 334.666 163.32C333.546 160.6 331.946 158.24 329.866 156.24C327.866 154.16 325.506 152.56 322.786 151.44C320.066 150.24 317.186 149.64 314.146 149.64H274.306V141.36H314.146ZM353.737 168.84C353.737 165.08 354.457 161.52 355.897 158.16C357.337 154.8 359.297 151.88 361.777 149.4C364.337 146.92 367.257 144.96 370.537 143.52C373.897 142.08 377.497 141.36 381.337 141.36H424.177V204H415.897V180.72H373.417V172.32H415.897V149.64H381.337C378.697 149.64 376.217 150.16 373.897 151.2C371.577 152.16 369.537 153.52 367.777 155.28C366.017 157.04 364.617 159.08 363.577 161.4C362.617 163.72 362.137 166.2 362.137 168.84V204H353.737V168.84ZM457.41 172.92C454.21 172.92 451.17 172.32 448.29 171.12C445.49 169.84 443.01 168.16 440.85 166.08C438.77 164 437.09 161.56 435.81 158.76C434.61 155.88 434.01 152.84 434.01 149.64V141.36H442.41V149.64C442.41 151.72 442.81 153.68 443.61 155.52C444.41 157.28 445.49 158.84 446.85 160.2C448.21 161.56 449.77 162.64 451.53 163.44C453.37 164.24 455.33 164.64 457.41 164.64H481.17C483.25 164.64 485.17 164.24 486.93 163.44C488.77 162.64 490.37 161.56 491.73 160.2C493.09 158.84 494.17 157.28 494.97 155.52C495.77 153.68 496.17 151.72 496.17 149.64V141.36H504.45V149.64C504.45 152.84 503.81 155.88 502.53 158.76C501.33 161.56 499.69 164 497.61 166.08C495.53 168.16 493.05 169.84 490.17 171.12C487.37 172.32 484.37 172.92 481.17 172.92H473.49V204H465.09V172.92H457.41Z" fill="#0036C1"/>
<path d="M524.16 207.18C521.6 207.18 519.2 206.8 516.96 206.04C514.72 205.24 513.02 204.24 511.86 203.04L512.82 201.48C513.98 202.52 515.56 203.44 517.56 204.24C519.56 205.04 521.78 205.44 524.22 205.44C527.7 205.44 530.2 204.84 531.72 203.64C533.28 202.44 534.06 200.88 534.06 198.96C534.06 197.56 533.68 196.46 532.92 195.66C532.16 194.86 531.16 194.24 529.92 193.8C528.68 193.36 527.3 193.02 525.78 192.78C524.3 192.5 522.8 192.2 521.28 191.88C519.76 191.52 518.38 191.06 517.14 190.5C515.9 189.9 514.9 189.08 514.14 188.04C513.38 187 513 185.62 513 183.9C513 182.42 513.4 181.06 514.2 179.82C515.04 178.58 516.3 177.58 517.98 176.82C519.66 176.02 521.8 175.62 524.4 175.62C526.32 175.62 528.24 175.92 530.16 176.52C532.12 177.08 533.68 177.84 534.84 178.8L533.82 180.36C532.58 179.36 531.12 178.62 529.44 178.14C527.8 177.66 526.1 177.42 524.34 177.42C521.1 177.42 518.74 178.04 517.26 179.28C515.78 180.52 515.04 182.04 515.04 183.84C515.04 185.28 515.42 186.44 516.18 187.32C516.94 188.16 517.94 188.8 519.18 189.24C520.42 189.68 521.78 190.04 523.26 190.32C524.78 190.6 526.28 190.9 527.76 191.22C529.28 191.54 530.66 191.98 531.9 192.54C533.14 193.1 534.14 193.88 534.9 194.88C535.66 195.88 536.04 197.24 536.04 198.96C536.04 200.56 535.58 202 534.66 203.28C533.78 204.52 532.46 205.48 530.7 206.16C528.98 206.84 526.8 207.18 524.16 207.18ZM553.304 207.18C550.744 207.18 548.784 206.46 547.424 205.02C546.064 203.58 545.384 201.64 545.384 199.2V169.02H547.364V198.9C547.364 201.02 547.884 202.64 548.924 203.76C549.964 204.88 551.484 205.44 553.484 205.44C555.524 205.44 557.204 204.82 558.524 203.58L559.544 205.02C558.784 205.74 557.844 206.28 556.724 206.64C555.604 207 554.464 207.18 553.304 207.18ZM539.504 177.6V175.86H557.624V177.6H539.504ZM580.88 207.18C578.2 207.18 575.9 206.7 573.98 205.74C572.06 204.74 570.58 203.28 569.54 201.36C568.5 199.4 567.98 197 567.98 194.16V175.86H569.96V194.04C569.96 197.76 570.92 200.58 572.84 202.5C574.76 204.42 577.46 205.38 580.94 205.38C583.42 205.38 585.56 204.86 587.36 203.82C589.2 202.74 590.6 201.24 591.56 199.32C592.52 197.4 593 195.18 593 192.66V175.86H594.98V207H593.06V198.3L593.3 198.84C592.42 201.4 590.9 203.44 588.74 204.96C586.58 206.44 583.96 207.18 580.88 207.18ZM620.001 207.18C617.121 207.18 614.521 206.52 612.201 205.2C609.921 203.84 608.101 201.98 606.741 199.62C605.421 197.22 604.761 194.48 604.761 191.4C604.761 188.28 605.421 185.56 606.741 183.24C608.101 180.88 609.921 179.02 612.201 177.66C614.521 176.3 617.121 175.62 620.001 175.62C622.801 175.62 625.321 176.28 627.561 177.6C629.801 178.92 631.561 180.76 632.841 183.12C634.161 185.48 634.821 188.24 634.821 191.4C634.821 194.52 634.161 197.28 632.841 199.68C631.561 202.08 629.801 203.94 627.561 205.26C625.321 206.54 622.801 207.18 620.001 207.18ZM620.061 205.38C622.621 205.38 624.901 204.8 626.901 203.64C628.901 202.44 630.481 200.78 631.641 198.66C632.801 196.54 633.381 194.12 633.381 191.4C633.381 188.64 632.801 186.22 631.641 184.14C630.481 182.02 628.901 180.38 626.901 179.22C624.901 178.06 622.621 177.48 620.061 177.48C617.541 177.48 615.281 178.06 613.281 179.22C611.281 180.38 609.681 182.02 608.481 184.14C607.321 186.22 606.741 188.64 606.741 191.4C606.741 194.12 607.321 196.54 608.481 198.66C609.681 200.78 611.281 202.44 613.281 203.64C615.281 204.8 617.541 205.38 620.061 205.38ZM633.441 207V196.08L633.981 191.34L633.381 186.6V162.48H635.361V207H633.441ZM648.672 207V175.86H650.652V207H648.672ZM649.632 167.7C649.112 167.7 648.652 167.5 648.252 167.1C647.852 166.7 647.652 166.26 647.652 165.78C647.652 165.22 647.852 164.76 648.252 164.4C648.652 164 649.112 163.8 649.632 163.8C650.192 163.8 650.652 164 651.012 164.4C651.412 164.76 651.612 165.2 651.612 165.72C651.612 166.24 651.412 166.7 651.012 167.1C650.652 167.5 650.192 167.7 649.632 167.7ZM675.725 207.18C672.805 207.18 670.185 206.52 667.865 205.2C665.585 203.84 663.765 201.96 662.405 199.56C661.085 197.16 660.425 194.44 660.425 191.4C660.425 188.32 661.085 185.6 662.405 183.24C663.765 180.88 665.585 179.02 667.865 177.66C670.185 176.3 672.805 175.62 675.725 175.62C678.645 175.62 681.265 176.3 683.585 177.66C685.905 179.02 687.725 180.88 689.045 183.24C690.365 185.6 691.025 188.32 691.025 191.4C691.025 194.44 690.365 197.16 689.045 199.56C687.725 201.96 685.905 203.84 683.585 205.2C681.265 206.52 678.645 207.18 675.725 207.18ZM675.725 205.38C678.285 205.38 680.565 204.8 682.565 203.64C684.605 202.44 686.185 200.78 687.305 198.66C688.465 196.54 689.045 194.12 689.045 191.4C689.045 188.64 688.465 186.22 687.305 184.14C686.185 182.02 684.605 180.38 682.565 179.22C680.565 178.06 678.285 177.48 675.725 177.48C673.205 177.48 670.945 178.06 668.945 179.22C666.945 180.38 665.345 182.02 664.145 184.14C662.985 186.22 662.405 188.64 662.405 191.4C662.405 194.12 662.985 196.54 664.145 198.66C665.345 200.78 666.945 202.44 668.945 203.64C670.945 204.8 673.205 205.38 675.725 205.38Z" fill="#222222"/>
</svg>
